<?xml version="1.0" encoding="UTF-8" standalone="no"?><!DOCTYPE svg PUBLIC "-//W3C//DTD SVG 1.1//EN" "http://www.w3.org/Graphics/SVG/1.1/DTD/svg11.dtd"><svg width="100%" height="100%" viewBox="0 0 4267 4267" version="1.1" xmlns="http://www.w3.org/2000/svg" xmlns:xlink="http://www.w3.org/1999/xlink" xml:space="preserve" xmlns:serif="http://www.serif.com/" style="fill-rule:evenodd;clip-rule:evenodd;stroke-linejoin:round;stroke-miterlimit:2;"><g><path d="M1398.408,4236.119c-6.166,-32.836 2.456,-112.445 15.14,-139.867c15.19,-32.886 43.163,-64.419 72.139,-81.514l23.411,-13.736l526.38,-5.013l2.958,-102.769c1.654,-56.548 3.359,-103.02 3.76,-103.321c0.451,-0.251 14.989,-1.805 32.285,-3.459c38.902,-3.609 62.514,-11.781 55.195,-19.1c-2.857,-2.857 -22.96,-7.971 -44.667,-11.33l-39.504,-6.116l0,-114.35l41.81,-5.966c50.031,-7.169 60.358,-13.987 32.736,-21.657c-10.678,-3.008 -24.213,-5.414 -30.029,-5.414c-5.865,-0.05 -17.747,-1.454 -26.369,-3.158l-15.641,-3.158l0,-127.635l34.641,-3.208c19.05,-1.805 39.804,-5.164 46.171,-7.52c11.179,-4.111 11.229,-4.462 1.704,-9.425c-5.414,-2.857 -26.269,-8.071 -46.321,-11.63l-36.496,-6.417l1.404,-63.015c1.153,-51.635 2.757,-63.216 8.923,-63.918c36.095,-4.111 80.21,-13.535 80.21,-17.045c0,-4.963 -26.369,-12.332 -61.411,-17.145l-23.812,-3.259l0,-64.87c0,-35.694 1.704,-64.87 3.76,-64.92c2.055,0 18.398,-2.406 36.345,-5.314c53.29,-8.572 51.535,-18.047 -5.013,-27.372l-32.585,-5.414l-2.807,-121.619l23.963,-3.309c39.804,-5.464 63.266,-12.683 58.102,-17.847c-2.607,-2.607 -21.055,-7.821 -41.058,-11.63c-19.952,-3.81 -36.897,-7.72 -37.649,-8.723c-0.752,-0.952 -0.351,-32.535 0.852,-70.184l2.256,-68.429l27.923,-3.459c31.132,-3.91 54.092,-11.28 49.48,-15.892c-1.654,-1.654 -19.451,-6.768 -39.554,-11.33l-36.496,-8.322l0,-129.941l37.599,-7.52c20.654,-4.161 37.599,-9.776 37.599,-12.533c0,-2.757 -13.535,-8.121 -30.079,-11.931c-16.543,-3.81 -32.886,-7.72 -36.345,-8.623c-4.612,-1.253 -6.266,-18.448 -6.266,-64.218l0,-62.514l23.812,-3.008c46.723,-5.966 56.398,-8.121 56.398,-12.683c0,-4.612 -22.058,-11.38 -56.398,-17.245l-18.799,-3.208l0,-27.372c0,-21.256 1.704,-27.322 7.72,-27.322c4.261,0 18.9,-10.427 32.535,-23.211l24.815,-23.161l20.353,18.398c11.229,10.127 25.918,20.905 32.636,24.013c12.082,5.464 12.282,6.567 12.282,69.482l0,63.867l-26.319,3.609c-33.789,4.612 -51.836,11.43 -45.92,17.295c3.66,3.66 58.604,14.939 73.493,15.09c2.055,0.05 3.76,29.076 3.76,64.519l0,64.519l-23.311,3.208c-38.05,5.214 -63.717,13.385 -58.453,18.649c2.607,2.607 21.506,7.52 42.01,10.929l37.248,6.166l1.404,67.276c1.003,47.525 -0.351,68.379 -4.512,70.936c-3.208,2.005 -20.203,5.164 -37.699,7.069c-52.538,5.615 -49.179,17.095 8.021,27.272l34.24,6.116l3.609,60.057c1.955,33.037 2.005,61.662 0.1,63.567c-1.905,1.955 -20.404,6.166 -41.108,9.375c-58.203,9.074 -56.699,17.947 4.762,27.522l38.701,6.016l0,121.719l-38.701,6.016c-21.306,3.309 -40.857,8.171 -43.414,10.728c-6.517,6.517 15.039,14.087 53.39,18.799l31.232,3.86l0,125.228l-30.079,5.414c-71.086,12.834 -72.891,18.097 -9.926,28.725l40.005,6.718l1.404,67.477l1.354,67.477l-43.314,5.916c-23.863,3.259 -44.617,7.169 -46.171,8.723c-6.718,6.667 9.826,13.185 47.575,18.699l40.506,5.865l3.008,25.417c1.704,13.937 3.108,41.258 3.108,60.709l0.05,35.393l-42.762,5.314c-23.512,2.908 -44.216,6.768 -46.021,8.572c-7.169,7.169 8.422,13.335 47.675,18.9l41.108,5.815l0.752,49.379c0.401,27.121 0.952,52.087 1.253,55.445c0.301,3.91 -16.543,9.324 -45.82,14.739c-68.079,12.583 -72.54,19.752 -16.343,26.419c15.19,1.805 36.045,4.512 46.372,6.016l18.799,2.757l0,36.395c0,20.053 1.454,50.232 3.208,67.076l3.208,30.63l263.742,1.454l263.742,1.404l23.311,13.686c31.533,18.549 61.912,54.292 74.295,87.279c8.222,22.058 10.177,39.203 10.177,89.735l0,62.464l-1463.387,0l-3.359,-18.047Zm168.642,-307.807l-2.807,-122.822l-37.599,-19.301c-168.692,-86.627 -299.034,-180.574 -421.154,-303.546c-238.124,-239.729 -393.382,-540.568 -445.318,-862.762c-17.997,-111.843 -23.161,-183.932 -22.559,-315.828c1.303,-290.311 49.179,-506.729 173.104,-782.051c47.124,-104.674 104.875,-211.906 234.966,-436.144c41.509,-71.588 77.804,-146.334 96.854,-199.573c20.905,-58.303 23.963,-55.044 -53.29,-56.949c-75.999,-1.905 -97.907,-9.274 -133.5,-44.868c-32.987,-32.987 -43.213,-59.506 -43.213,-112.194c0,-52.087 10.979,-81.163 42.612,-112.796c34.942,-34.942 58.052,-42.161 141.621,-44.316l73.944,-1.905l-0.1,-13.235c-0.802,-82.767 -75.247,-185.938 -166.787,-231.056c-47.324,-23.361 -60.459,-35.794 -69.482,-65.923c-4.762,-15.992 -4.261,-23.111 3.058,-42.211c17.345,-45.469 64.168,-60.709 147.186,-47.825c208.497,32.235 338.989,146.384 402.806,352.474l16.694,53.891l1258.3,0l14.187,-48.878c35.092,-120.666 96.854,-213.259 181.275,-271.562c75.197,-52.036 166.136,-83.318 258.929,-89.084c43.213,-2.707 50.683,-1.855 71.237,8.121c37.298,18.047 55.496,58.804 41.409,92.593c-10.578,25.266 -27.322,39.153 -76.601,63.567c-85.524,42.361 -141.07,120.516 -158.867,223.386l-2.757,15.791l76.25,1.855c67.076,1.654 79.007,3.259 99.711,13.385c30.029,14.689 60.358,44.968 75.197,75.097c16.443,33.337 16.543,98.609 0.301,131.695c-17.446,35.393 -43.815,62.765 -75.348,78.255c-26.219,12.884 -34.34,14.237 -95.3,15.842c-65.472,1.704 -66.524,1.905 -63.316,12.533c24.665,81.764 56.147,147.286 144.88,301.541c134.904,234.515 172.051,306.454 231.256,448.025c89.334,213.66 128.687,387.616 142.423,629.802c18.549,327.509 -55.145,656.772 -205.338,917.305c-160.421,278.38 -374.632,485.172 -655.82,633.21l-63.867,33.638l-2.807,122.822l-419.45,0l-3.108,-66.424c-1.704,-36.546 -4.311,-127.334 -5.765,-201.779c-1.504,-74.445 -3.91,-152.6 -5.414,-173.706l-2.707,-38.351l36.646,-6.066c273.968,-45.519 546.182,-205.589 692.215,-407.017c124.426,-171.7 191.703,-367.313 229.853,-668.252c15.34,-120.817 15.29,-295.675 -0.1,-398.545c-33.638,-225.491 -95.4,-389.822 -288.857,-768.866c-100.313,-196.515 -137.11,-283.092 -162.727,-382.904l-5.514,-21.306l-175.059,0l-0.852,78.957c-0.451,43.414 -1.003,150.445 -1.253,237.874c-0.251,98.909 -2.306,160.721 -5.414,163.629c-6.166,5.865 -51.234,15.541 -54.944,11.831c-1.504,-1.454 -2.707,-112.846 -2.707,-247.499l0,-244.792l-135.255,0l-2.607,556.961l-31.332,19.902l-31.332,19.952l0,-596.815l-160.421,0l0,807.317l-30.981,67.477l-26.67,-55.145l-1.354,-409.825l-1.303,-409.825l-160.27,0l0,295.776c0,162.677 -1.404,295.776 -3.108,295.776c-1.704,0 -16.343,-8.071 -32.585,-17.897l-29.477,-17.897l0,-555.757l-135.255,0l-1.303,246.897c-1.303,243.639 -1.454,246.897 -11.33,245.544c-5.514,-0.752 -19.601,-3.86 -31.332,-6.918l-21.306,-5.565l0,-480.209l-88.231,1.404l-88.231,1.354l-16.594,57.852c-23.161,80.561 -72.039,192.003 -148.439,338.538c-215.465,413.184 -285.398,619.675 -300.889,888.881c-12.784,221.481 26.62,489.133 101.566,689.909c88.332,236.52 218.373,392.981 435.542,523.974c114.149,68.881 259.029,122.521 392.981,145.632l34.541,5.916l-3.259,163.579c-1.805,89.936 -4.662,197.919 -6.367,239.979l-3.158,76.45l-419.45,0Zm122.772,-1179.343c-43.163,-88.582 -50.432,-120.466 -50.131,-219.325c0.251,-76.601 1.303,-85.875 14.237,-125.329c21.607,-65.973 51.986,-115.352 114.901,-186.94c56.197,-63.918 160.02,-138.463 245.845,-176.362c15.591,-6.918 28.324,-13.485 28.324,-14.588c0,-3.208 -38.1,6.317 -91.39,22.86c-26.82,8.322 -82.617,31.733 -124.075,51.986c-41.409,20.303 -75.297,35.142 -75.297,32.987c0,-2.156 5.514,-20.103 12.232,-39.855c6.718,-19.802 10.578,-35.994 8.522,-35.994c-3.86,0 -38.952,45.67 -73.944,96.152c-15.591,22.509 -34.841,39.153 -91.49,78.957c-39.453,27.773 -73.543,50.482 -75.799,50.482c-2.306,0 -5.665,-24.264 -7.52,-53.891c-1.805,-29.628 -3.96,-56.147 -4.762,-58.904c-0.802,-2.757 -14.287,34.791 -29.928,83.469l-28.475,88.482l-36.746,30.38c-20.203,16.744 -38,29.126 -39.554,27.572c-1.554,-1.504 -5.665,-22.91 -9.124,-47.474c-3.509,-24.564 -7.921,-42.913 -9.876,-40.857c-1.905,2.106 -14.338,33.137 -27.522,68.981c-20.855,56.598 -27.322,68.63 -49.229,91.49c-13.886,14.488 -26.971,26.319 -29.177,26.319c-7.47,0 -3.66,-82.917 5.815,-125.329c37.649,-169.093 123.424,-284.045 265.145,-355.532c44.416,-22.409 125.078,-48.377 181.325,-58.453c65.171,-11.681 192.655,-10.979 274.369,1.404c33.738,5.164 59.456,7.47 57.15,5.164c-2.256,-2.256 -27.422,-12.032 -55.796,-21.707c-45.168,-15.29 -110.791,-28.876 -191.753,-39.554c-13.084,-1.755 -23.812,-5.013 -23.812,-7.269c0,-2.256 12.483,-13.736 27.723,-25.467c15.19,-11.731 26.72,-22.309 25.617,-23.462c-1.153,-1.153 -33.388,9.475 -71.588,23.612l-69.482,25.667l-88.983,2.306c-48.928,1.253 -88.983,0.702 -88.983,-1.153c0,-1.855 11.38,-24.464 25.266,-50.232c13.836,-25.768 24.163,-46.823 22.86,-46.823c-1.303,0 -27.923,19.902 -59.105,44.266c-80.11,62.514 -76.2,60.559 -129.089,64.319l-46.622,3.309l3.76,-12.082c2.055,-6.667 10.377,-25.266 18.499,-41.409c8.071,-16.142 13.636,-30.38 12.382,-31.633c-1.253,-1.253 -32.435,17.847 -69.232,42.511c-64.67,43.263 -68.129,44.868 -100.814,47.324c-18.599,1.404 -33.839,0.802 -33.839,-1.354c0,-9.675 47.725,-66.575 89.234,-106.429c89.535,-85.875 175.861,-127.033 291.464,-138.914c109.487,-11.229 221.28,15.19 337.936,79.809c58.654,32.485 112.445,72.941 177.465,133.5c28.274,26.319 51.385,46.372 51.385,44.567c0,-1.805 -14.037,-23.963 -31.232,-49.229c-29.527,-43.414 -157.814,-178.819 -169.444,-178.819c-2.657,0 -4.863,-2.256 -4.863,-5.013c0,-2.908 17.396,-5.164 41.358,-5.364l41.358,-0.401l-27.572,-9.926c-15.14,-5.464 -47.876,-15.44 -72.691,-22.158c-38.2,-10.327 -53.691,-18.047 -101.165,-50.432c-30.831,-21.055 -63.266,-44.266 -72.089,-51.635l-15.992,-13.335l52.036,-20.855l51.986,-20.855l-86.226,-0.251l-86.276,-0.301l-37.799,-23.812c-20.805,-13.084 -37.799,-25.567 -37.799,-27.673c-0.05,-2.156 14.689,-10.929 32.686,-19.501c17.997,-8.623 33.889,-17.596 35.393,-19.952c1.454,-2.356 -26.52,-4.311 -62.163,-4.311l-64.82,0l-38.25,-21.306c-21.055,-11.731 -38.25,-22.71 -38.25,-24.414c0,-3.509 42.762,-15.641 87.73,-24.965c47.725,-9.826 157.162,-7.419 211.655,4.712c122.421,27.272 233.061,103.973 304.749,211.204c36.997,55.395 79.408,143.927 101.115,211.204c10.528,32.636 20.303,59.406 21.657,59.506c1.404,0.1 10.026,-24.113 19.25,-53.741c72.44,-233.312 218.523,-386.514 407.87,-427.872c57.802,-12.583 165.434,-13.485 222.834,-1.805c54.192,10.979 77.102,18.097 74.044,22.96c-1.404,2.306 -16.744,12.132 -34.14,21.857c-28.775,16.092 -35.343,17.696 -73.743,18.198c-23.161,0.301 -55.646,2.055 -72.189,3.86l-30.079,3.359l40.105,19l40.105,19.05l-13.836,11.129c-7.57,6.116 -26.018,18.549 -40.957,27.622l-27.221,16.493l-84.02,-0.551c-46.271,-0.301 -83.068,0.451 -81.865,1.654c1.253,1.203 23.161,10.528 48.678,20.754c25.517,10.177 47.274,19.952 48.377,21.757c3.309,5.414 -133.65,97.556 -154.956,104.173c-11.029,3.459 -45.971,13.736 -77.704,22.81l-57.651,16.594l37.599,1.354c20.654,0.752 40.506,2.406 44.066,3.71c3.91,1.354 -7.169,14.087 -27.572,31.733c-71.487,61.762 -141.722,144.028 -171.951,201.328c-3.609,6.918 16.644,-9.525 45.018,-36.496c110.791,-105.276 222.483,-172.552 339.34,-204.336c56.498,-15.39 170.447,-19.15 227.747,-7.52c99.511,20.153 176.613,63.216 255.219,142.574c52.387,52.889 84.421,93.194 78.656,98.96c-1.654,1.654 -17.646,1.454 -35.543,-0.451c-30.68,-3.309 -36.446,-6.166 -100.514,-50.482c-37.348,-25.818 -67.928,-44.767 -67.928,-42.11c0,2.657 7.921,20.554 17.546,39.704c9.625,19.15 17.546,37.448 17.546,40.657c0,4.211 -13.235,5.113 -47.073,3.359l-47.023,-2.456l-31.934,-24.264c-17.546,-13.335 -48.076,-37.348 -67.828,-53.39c-19.802,-15.992 -37.298,-29.076 -38.902,-29.076c-1.604,0 8.372,22.559 22.208,50.131l25.166,50.131l-85.123,0c-83.669,0 -85.875,-0.301 -124.125,-15.641c-52.738,-21.105 -107.933,-39.905 -110.289,-37.548c-1.103,1.053 12.032,12.934 29.126,26.319l31.082,24.364l-27.071,4.161c-113.698,17.546 -152.7,25.617 -199.323,41.208c-29.327,9.826 -55.546,20.303 -58.303,23.311c-3.509,3.86 -2.306,4.512 4.161,2.256c24.163,-8.572 138.764,-19.551 203.885,-19.601c199.222,-0.1 367.664,68.931 472.038,193.507c51.134,61.01 90.287,151.598 107.031,247.499c7.57,43.564 10.127,106.73 4.261,106.73c-1.805,0 -15.14,-10.177 -29.678,-22.609c-22.409,-19.15 -28.174,-27.823 -37.548,-56.398c-16.694,-51.134 -40.606,-112.445 -42.913,-110.139c-1.103,1.153 -4.412,21.055 -7.319,44.216c-2.857,23.211 -6.818,43.665 -8.723,45.469c-1.905,1.855 -19.2,-9.575 -38.501,-25.316c-39.303,-32.134 -40.105,-33.638 -73.794,-140.92l-21.256,-67.677l-4.061,45.118c-2.256,24.815 -5.214,52.287 -6.567,61.06l-2.507,15.992l-71.237,-51.284c-61.712,-44.366 -75.548,-56.999 -102.82,-93.646c-39.554,-53.139 -66.725,-86.176 -69.031,-83.92c-0.952,1.003 3.81,16.995 10.578,35.643c6.768,18.649 12.282,36.045 12.282,38.701c0,2.657 -27.121,-8.773 -60.308,-25.367c-86.577,-43.414 -135.756,-61.812 -222.935,-83.318c-5.514,-1.354 15.842,11.38 47.474,28.324c183.331,98.057 303.546,231.758 341.295,379.445c17.195,67.176 11.53,170.196 -13.535,246.948c-9.976,30.43 -50.733,113.297 -59.255,120.316c-5.414,4.512 -8.974,-0.15 -17.847,-23.411l-11.029,-29.076l13.636,-69.232c7.52,-38.1 12.533,-70.334 11.179,-71.738c-1.404,-1.354 -13.235,11.179 -26.369,27.873c-13.084,16.694 -25.517,30.38 -27.622,30.38c-2.055,0 -9.926,-16.894 -17.446,-37.548c-15.992,-43.865 -15.541,-49.881 9.976,-132.899c9.625,-31.382 16.644,-57.902 15.591,-58.955c-1.003,-1.053 -14.739,14.037 -30.48,33.538c-15.791,19.501 -30.079,35.443 -31.833,35.443c-1.805,0 -16.243,-34.39 -32.134,-76.45l-28.926,-76.45l0.1,-66.424c0.05,-36.546 -1.755,-66.424 -4.011,-66.424c-2.256,0 -7.971,12.382 -12.784,27.572c-4.762,15.19 -10.778,27.572 -13.385,27.572c-2.557,0 -12.834,-16.343 -22.86,-36.345c-54.493,-109.186 -136.959,-194.41 -187.843,-194.209c-21.757,0.1 -62.364,23.06 -89.535,50.683c-29.427,29.878 -82.065,106.579 -103.722,151.046c-7.72,15.842 -15.691,28.826 -17.747,28.826c-2.005,0 -7.62,-12.382 -12.382,-27.572c-4.813,-15.19 -10.528,-27.572 -12.784,-27.572c-2.256,0 -4.111,28.926 -4.111,64.319l0,64.319l-27.372,73.643c-15.039,40.456 -29.126,76.801 -31.332,80.712c-2.908,5.164 -11.931,-3.509 -33.839,-32.485c-16.393,-21.757 -30.58,-38.802 -31.483,-37.899c-0.902,0.852 7.47,32.686 18.599,70.735c11.129,38 20.253,73.844 20.303,79.609c0.1,12.884 -26.118,83.218 -30.981,83.218c-1.955,0 -14.338,-13.736 -27.522,-30.53c-13.235,-16.794 -24.815,-28.074 -25.818,-25.066c-1.003,2.958 4.311,34.49 11.781,69.984l13.586,64.569l-11.881,30.68c-6.567,16.894 -13.586,30.731 -15.641,30.731c-2.055,0 -16.092,-25.367 -31.182,-56.398Zm315.377,-414.136c-21.005,-12.834 -32.987,-32.836 -33.287,-55.646c-0.551,-38.651 27.572,-65.371 68.68,-65.371c20.754,0 26.018,2.356 43.113,19.451c17.396,17.396 19.451,22.108 19.451,44.467c0,51.936 -54.393,83.669 -97.957,57.1Zm193.558,0.802c-25.316,-13.285 -38.05,-33.287 -37.498,-58.904c0.652,-28.475 16.243,-49.831 44.316,-60.559c26.921,-10.277 48.978,-4.813 70.284,17.446c47.876,49.981 -15.741,134.152 -77.102,102.018Zm-103.521,-131.294c-33.438,-20.353 -39.955,-64.77 -14.087,-95.551c25.868,-30.731 70.084,-31.182 99.06,-0.902c38.05,39.704 7.119,105.878 -49.48,105.878c-11.029,0 -27.021,-4.211 -35.493,-9.425Z" style="fill:#004e16;fill-rule:nonzero;"/></g></svg>